# xmcd
#
# Track frame offsets:
#	150
#	11950
#	30790
#	53774
#	71030
#	85694
#	101062
#	116414
#	131494
#	147374
#	160758
#	176670
#	193974
#	205006
#	220550
#	233422
#
# Disc length: 3296 seconds
#
# Revision: 0
# Processed by: cddbd v1.5.2PL0 Copyright (c) Steve Scherf et al.
# Submitted via: dBpowerAMP V4.0
#
DISCID=d30cde10
DTITLE=Bill Anderson - Whisperin Blue Grass Disk 1
DYEAR=2007
DGENRE=Country
TTITLE0=Slippin' Away
TTITLE1=My Perfect Reason
TTITLE2=I've Got a Thing About a Five String
TTITLE3=The Cold Hard Facts of Life
TTITLE4=Everything I Want (And Not a Thing I Need)
TTITLE5=Give It Away
TTITLE6=I Never Once Stopped Loving You
TTITLE7=The Lord Knows I'm Drinking
TTITLE8=He's Got the Whole World in His Hands
TTITLE9=Leaning on the Everlasting Arms
TTITLE10=I'll Be Somewhere Listening
TTITLE11=In the Garden
TTITLE12=Using My Bible for a Roadmap
TTITLE13=I Love to Tell the Story
TTITLE14=If I Could Hear My Mother Pray Again
TTITLE15=Amazing Grace
EXTD=
EXTT0=
EXTT1=
EXTT2=
EXTT3=
EXTT4=
EXTT5=
EXTT6=
EXTT7=
EXTT8=
EXTT9=
EXTT10=
EXTT11=
EXTT12=
EXTT13=
EXTT14=
EXTT15=
PLAYORDER=
